<svg viewBox="0 0 1565 880" version="1.1" xmlns="http://www.w3.org/2000/svg">
<defs>
<clipPath id="c0_5"><path d="M-.2 880.3V-.2H1565.5V880.3Z"/></clipPath>
<clipPath id="c1_5"><path d="M1128.7 801.1c-63.3 0-114.6-51.3-114.6-114.6V292.8c0-63.3 51.3-114.6 114.6-114.6h233.9c61.3 0 111.4 48.1 114.5 108.6V692.5c-3.1 60.5-53.2 108.6-114.5 108.6Z"/></clipPath>
<clipPath id="c2_5"><path d="M665.7 801.1c-63.3 0-114.6-51.3-114.6-114.6V292.8c0-63.3 51.3-114.6 114.6-114.6H899.6c61.2 0 111.3 48.1 114.4 108.6V692.5c-3.1 60.5-53.2 108.6-114.4 108.6Z"/></clipPath>
<clipPath id="c3_5"><path d="M202.6 801.1C139.3 801.1 88 749.8 88 686.5V292.8c0-63.3 51.3-114.6 114.6-114.6H436.5c61.3 0 111.3 48.1 114.4 108.6V692.5c-3.1 60.5-53.1 108.6-114.4 108.6Z"/></clipPath>
<style>
.g0_5{fill:#FFF;}
.g1_5{fill:#F1F1F1;}
</style>
</defs>
<g clip-path="url(#c0_5)">
<path d="M0 0H1565.2V880H0V0Z" class="g0_5"/>
<path d="M0 0H1565.2V880H0V0Z" class="g1_5"/>
</g>
<image clip-path="url(#c1_5)" preserveAspectRatio="none" x="778" y="178" width="936" height="624" href="/images/page5/img/1.jpg"/>
<image clip-path="url(#c2_5)" preserveAspectRatio="none" x="551" y="142" width="463" height="695" href="/images/page5/img/2.jpg"/>
<image clip-path="url(#c3_5)" preserveAspectRatio="none" x="88" y="78" width="463" height="823" href="/images/page5/img/3.jpg"/>
</svg>