<svg viewBox="0 0 1565 880" version="1.1" xmlns="http://www.w3.org/2000/svg">
<defs>
<clipPath id="c0_4"><path d="M-.2 880.3V-.2H1565.5V880.3Z"/></clipPath>
<clipPath id="c1_4"><path d="M87.9 785.8V377.2H496.5V785.8Z"/></clipPath>
<style>
.g0_4{fill:#FFF;}
.g1_4{fill:#00C892;}
.g2_4{fill:#012929;}
.g3_4{fill:#F1F1F1;}
</style>
</defs>
<g clip-path="url(#c0_4)">
<path d="M0 0H1565.2V880H0V0Z" class="g0_4"/>
<path d="M0 0H1565.2V880H0V0Z" class="g1_4"/>
</g>
<path d="M789.8 82.4c0 .7-.1 1.5-.4 2.1c-.3 .7-.7 1.4-1.3 1.9c-.5 .5-1.1 .9-1.8 1.2c-.7 .3-1.4 .4-2.2 .4c-.7 0-1.4-.1-2.1-.4c-.7-.3-1.3-.7-1.9-1.2c-.5-.5-.9-1.2-1.2-1.9c-.3-.6-.4-1.4-.4-2.1c0-.8 .1-1.5 .4-2.2c.3-.7 .7-1.3 1.2-1.8c.6-.6 1.2-1 1.9-1.3c.7-.2 1.4-.4 2.1-.4c.8 0 1.5 .2 2.2 .4c.7 .3 1.3 .7 1.8 1.3c.6 .5 1 1.1 1.3 1.8c.3 .7 .4 1.4 .4 2.2Z" class="g2_4"/>
<path d="M789.8 278.8c0 .8-.1 1.5-.4 2.2c-.3 .7-.7 1.3-1.3 1.8c-.5 .6-1.1 1-1.8 1.3c-.7 .3-1.4 .4-2.2 .4c-.7 0-1.4-.1-2.1-.4c-.7-.3-1.3-.7-1.9-1.3c-.5-.5-.9-1.1-1.2-1.8c-.3-.7-.4-1.4-.4-2.2c0-.7 .1-1.4 .4-2.1c.3-.7 .7-1.3 1.2-1.9c.6-.5 1.2-.9 1.9-1.2c.7-.3 1.4-.4 2.1-.4c.8 0 1.5 .1 2.2 .4c.7 .3 1.3 .7 1.8 1.2c.6 .6 1 1.2 1.3 1.9c.3 .7 .4 1.4 .4 2.1Z" class="g2_4"/>
<path d="M789.8 475.3c0 .7-.1 1.5-.4 2.2c-.3 .7-.7 1.3-1.3 1.8c-.5 .5-1.1 .9-1.8 1.2c-.7 .3-1.4 .5-2.2 .5c-.7 0-1.4-.2-2.1-.5c-.7-.3-1.3-.7-1.9-1.2c-.5-.5-.9-1.1-1.2-1.8c-.3-.7-.4-1.5-.4-2.2c0-.8 .1-1.5 .4-2.2c.3-.7 .7-1.3 1.2-1.8c.6-.5 1.2-1 1.9-1.2c.7-.3 1.4-.5 2.1-.5c.8 0 1.5 .2 2.2 .5c.7 .2 1.3 .7 1.8 1.2c.6 .5 1 1.1 1.3 1.8c.3 .7 .4 1.4 .4 2.2Z" class="g2_4"/>
<g clip-path="url(#c1_4)">
<path d="M527.7 785.4c0 0-469.4 0-469.4 0c0 0 0-204.3 0-204.3c0 0 469.4 0 469.4 0c0 0 0 204.3 0 204.3Z" class="g1_4"/>
<path d="M527.7 581.3c0 0-469.4 0-469.4 0c0 0 0-204.2 0-204.2c0 0 469.4 0 469.4 0c0 0 0 204.2 0 204.2Z" class="g1_4"/>
<path d="M496 376.6c0 0-408.2 0-408.2 0c0 112.8 91.4 204.2 204.1 204.2c112.7 0 204.1-91.4 204.1-204.2Z" class="g3_4"/>
<path d="M527.7 989.6c0 0-469.4 0-469.4 0c0 0 0-204.3 0-204.3c0 0 469.4 0 469.4 0c0 0 0 204.3 0 204.3Z" class="g1_4"/>
<path d="M496 785c0 0-408.2 0-408.2 0c0 112.8 91.4 204.1 204.1 204.1C404.6 989.1 496 897.8 496 785Z" class="g3_4"/>
<path d="M496.1 581.2c0 0-408.2 0-408.2 0C87.9 693.8 179.3 785 292 785c112.7 0 204.1-91.2 204.1-203.8Z" class="g2_4"/>
</g>
</svg>