<svg viewBox="0 0 1565 880" version="1.1" xmlns="http://www.w3.org/2000/svg">
<defs>
<clipPath id="c0_6"><path d="M-.2 880.3V-.2H1565.5V880.3Z"/></clipPath>
<clipPath id="c1_6"><path d="M88.7 880.3V248.5H530.2V880.3Z"/></clipPath>
<style>
.g0_6{fill:#FFF;}
.g1_6{fill:#00C892;}
.g2_6{fill:#012929;}
.g3_6{fill:#5382FF;}
.g4_6{fill:#F1F1F1;}
</style>
</defs>
<g clip-path="url(#c0_6)">
<path d="M0 0H1565.2V880H0V0Z" class="g0_6"/>
<path d="M0 0H1565.2V880H0V0Z" class="g1_6"/>
</g>
<path d="M700.3 72.7c0 .5-.1 1-.3 1.5c-.2 .5-.5 .9-.9 1.3c-.4 .4-.8 .7-1.3 .9c-.5 .2-1 .3-1.5 .3c-.6 0-1.1-.1-1.6-.3c-.5-.2-.9-.5-1.3-.9c-.4-.4-.6-.8-.9-1.3c-.2-.5-.3-1-.3-1.5c0-.6 .1-1.1 .3-1.6c.3-.4 .5-.9 .9-1.3c.4-.3 .8-.6 1.3-.8c.5-.2 1-.3 1.6-.3c.5 0 1 .1 1.5 .3c.5 .2 .9 .5 1.3 .8c.4 .4 .7 .9 .9 1.3c.2 .5 .3 1 .3 1.6Z" class="g0_6"/>
<path d="M700.3 267.5c0 .5-.1 1-.3 1.5c-.2 .5-.5 .9-.9 1.3c-.4 .4-.8 .7-1.3 .9c-.5 .2-1 .3-1.5 .3c-.6 0-1.1-.1-1.6-.3c-.5-.2-.9-.5-1.3-.9c-.4-.4-.6-.8-.9-1.3c-.2-.5-.3-1-.3-1.5c0-.6 .1-1.1 .3-1.6c.3-.5 .5-.9 .9-1.3c.4-.3 .8-.6 1.3-.8c.5-.2 1-.3 1.6-.3c.5 0 1 .1 1.5 .3c.5 .2 .9 .5 1.3 .8c.4 .4 .7 .8 .9 1.3c.2 .5 .3 1 .3 1.6Z" class="g0_6"/>
<path d="M700.3 462.3c0 .5-.1 1-.3 1.5c-.2 .5-.5 .9-.9 1.3c-.4 .4-.8 .7-1.3 .9c-.5 .2-1 .3-1.5 .3c-.6 0-1.1-.1-1.6-.3c-.5-.2-.9-.5-1.3-.9c-.4-.4-.6-.8-.9-1.3c-.2-.5-.3-1-.3-1.5c0-.6 .1-1.1 .3-1.6c.3-.5 .5-.9 .9-1.3c.4-.4 .8-.6 1.3-.8c.5-.2 1-.3 1.6-.3c.5 0 1 .1 1.5 .3c.5 .2 .9 .4 1.3 .8c.4 .4 .7 .8 .9 1.3c.2 .5 .3 1 .3 1.6Z" class="g0_6"/>
<path clip-path="url(#c1_6)" d="M89 1032.4c0 0 440.8 0 440.8 0c0 0 0-783.6 0-783.6c0 0-440.8 0-440.8 0c0 0 0 783.6 0 783.6Z" class="g1_6"/>
<path d="M380.6 771.9c0 0-218.8 0-218.8 0c0 0 0-279.3 0-279.3c0 0 218.8 0 218.8 0c0 0 0 279.3 0 279.3Z" class="g2_6"/>
<g clip-path="url(#c1_6)">
<path d="M380.4 983.4c0 0 149.4 0 149.4 0c0 0 0-211.7 0-211.7c0 0-149.4 0-149.4 0c0 0 0 211.7 0 211.7Z" class="g3_6"/>
<path d="M88.8 492.2c0 0 73 0 73 0c0 0 0-205.4 0-205.4c0 0-73 0-73 0c0 0 0 205.4 0 205.4Z" class="g4_6"/>
</g>
</svg>