<svg viewBox="0 0 1565 880" version="1.1" xmlns="http://www.w3.org/2000/svg">
<defs>
<clipPath id="c0_1"><path d="M-.2 880.3V-.2H1565.5V880.3Z"/></clipPath>
<clipPath id="c1_1"><path d="M-.2 880.3V1.6H1565.5V880.3Z"/></clipPath>
<clipPath id="c2_1"><path d="M163.9 835.8c-35.5 0-64.4-25.4-64.4-56.9v-574c0-31.5 28.9-57 64.7-57H1423.8c35.8 0 64.7 25.5 64.7 57V778.8c0 31.5-28.9 57-64.7 57H164.2c-.1 0-.2 0-.3 0Z"/></clipPath>
<clipPath id="c3_1"><path d="M1304.9 107.9c-6.3 0-11.4-5.1-11.4-11.5V54.1c0-6.4 5.1-11.5 11.4-11.5h160.8c6.4 0 11.5 5.1 11.5 11.5V96.4c0 6.4-5.1 11.5-11.5 11.5Z"/></clipPath>
<clipPath id="c4_1"><path d="M14 88.7V38.8H307.9V88.7Z"/></clipPath>
<style>
.g0_1{fill:#FFF;}
.g1_1{fill:#012929;}
.g2_1{fill:#C1FF72;}
.g3_1{fill:#FE696E;}
.g4_1{fill:#5382FF;}
.g5_1{fill:#00C892;}
</style>
</defs>
<g clip-path="url(#c0_1)">
<path d="M0 0H1565.2V880H0V0Z" class="g0_1"/>
<path d="M0 0H1565.2V880H0V0Z" class="g1_1"/>
</g>
<g clip-path="url(#c1_1)">
<path d="M1565.2 882.4c0 0 0-879.6 0-879.6c0 0-1565.2 0-1565.2 0c0 0 0 879.6 0 879.6c0 0 1565.2 0 1565.2 0Z" class="g2_1"/>
<path d="M865.7 478.6c0 0-389.8 389.7-389.8 389.7c-19.6 19.7-51.5 19.7-71.2 0c0 0-389.8-389.7-389.8-389.7c-19.5-19.7-19.5-51.6 0-71.3c0 0 389.8-389.7 389.8-389.7C424.4-2 456.3-2 475.9 17.6c0 0 389.8 389.7 389.8 389.7c19.7 19.7 19.7 51.6 0 71.3Z" class="g3_1"/>
<path d="M2075 477.9c0 0-389.8 389.8-389.8 389.8c-19.6 19.7-51.6 19.7-71.2 0c0 0-389.8-389.8-389.8-389.8c-19.7-19.6-19.7-51.5 0-71.2c0 0 389.8-389.8 389.8-389.8c19.6-19.5 51.6-19.5 71.2 0c0 0 389.8 389.8 389.8 389.8c19.7 19.7 19.7 51.6 0 71.2Z" class="g4_1"/>
</g>
<path d="M1194.5 479.6c0 0-114.2 114.2-114.2 114.2c-19.6 19.7-51.5 19.7-71.2 0c0 0-114.2-113.8-114.2-113.8c-19.7-19.7-19.7-51.6 0-71.2c0 0 113.8-115.1 113.8-115.1c19.7-19.6 51.6-19.6 71.2 0c0 0 114.6 114.7 114.6 114.7c19.7 19.6 19.7 51.5 0 71.2Z" class="g5_1"/>
<image clip-path="url(#c2_1)" preserveAspectRatio="none" x="99" y="54" width="1390" height="782" href="img/1.jpg"/>
<path clip-path="url(#c3_1)" d="M1293.5 42.6h183.6v65.3H1293.5V42.6Z" class="g5_1"/>
<image clip-path="url(#c4_1)" preserveAspectRatio="none" x="14" y="39" width="294" height="49" href="img/2.png"/>
</svg>